{
  "accessors": [
    {
      "bufferView": 2,
      "componentType": 5126,
      "count": 9157,
      "max": [
        1.0000008344650269,
        1.0,
        1.0000014305114746
      ],
      "min": [
        -0.9999999403953552,
        -1.0,
        -1.0
      ],
      "type": "VEC3"
    },
    {
      "bufferView": 2,
      "byteOffset": 109884,
      "componentType": 5126,
      "count": 9157,
      "max": [
        1.0,
        1.0,
        1.0
      ],
      "min": [
        -1.0,
        -1.0,
        -1.0
      ],
      "type": "VEC3"
    },
    {
      "bufferView": 1,
      "componentType": 5126,
      "count": 9157,
      "max": [
        1.0000027418136597,
        1.0
      ],
      "min": [
        0.0,
        0.0
      ],
      "type": "VEC2"
    },
    {
      "bufferView": 0,
      "componentType": 5125,
      "count": 52992,
      "type": "SCALAR"
    },
    {
      "bufferView": 2,
      "byteOffset": 219768,
      "componentType": 5126,
      "count": 57240,
      "max": [
        1.0000020265579224,
        1.0,
        1.0000039339065552
      ],
      "min": [
        -1.0000028610229492,
        -1.0,
        -1.0000019073486328
      ],
      "type": "VEC3"
    },
    {
      "bufferView": 2,
      "byteOffset": 906648,
      "componentType": 5126,
      "count": 57240,
      "max": [
        0.9996551871299744,
        0.9998072385787964,
        0.9996553063392639
      ],
      "min": [
        -0.9996553063392639,
        -0.9998072981834412,
        -0.9996553063392639
      ],
      "type": "VEC3"
    },
    {
      "bufferView": 1,
      "byteOffset": 73256,
      "componentType": 5126,
      "count": 57240,
      "max": [
        1.0000040531158447,
        1.0
      ],
      "min": [
        0.0,
        0.0
      ],
      "type": "VEC2"
    },
    {
      "bufferView": 0,
      "byteOffset": 211968,
      "componentType": 5125,
      "count": 85320,
      "type": "SCALAR"
    },
    {
      "bufferView": 2,
      "byteOffset": 1593528,
      "componentType": 5126,
      "count": 57240,
      "max": [
        1.0000020265579224,
        1.0,
        1.0000039339065552
      ],
      "min": [
        -1.0000028610229492,
        -1.0,
        -1.0000019073486328
      ],
      "type": "VEC3"
    },
    {
      "bufferView": 2,
      "byteOffset": 2280408,
      "componentType": 5126,
      "count": 57240,
      "max": [
        0.9996551871299744,
        0.9998072385787964,
        0.9996553063392639
      ],
      "min": [
        -0.9996553063392639,
        -0.9998072981834412,
        -0.9996553063392639
      ],
      "type": "VEC3"
    },
    {
      "bufferView": 1,
      "byteOffset": 531176,
      "componentType": 5126,
      "count": 57240,
      "max": [
        1.0000040531158447,
        1.0
      ],
      "min": [
        0.0,
        0.0
      ],
      "type": "VEC2"
    },
    {
      "bufferView": 0,
      "byteOffset": 553248,
      "componentType": 5125,
      "count": 85320,
      "type": "SCALAR"
    },
    {
      "bufferView": 2,
      "byteOffset": 2967288,
      "componentType": 5126,
      "count": 24,
      "max": [
        1.0,
        1.0,
        1.0
      ],
      "min": [
        -1.0,
        -1.0,
        -1.0
      ],
      "type": "VEC3"
    },
    {
      "bufferView": 2,
      "byteOffset": 2967576,
      "componentType": 5126,
      "count": 24,
      "max": [
        1.0,
        1.0,
        1.0
      ],
      "min": [
        -1.0,
        -1.0,
        -1.0
      ],
      "type": "VEC3"
    },
    {
      "bufferView": 1,
      "byteOffset": 989096,
      "componentType": 5126,
      "count": 24,
      "max": [
        0.875,
        1.0
      ],
      "min": [
        0.125,
        0.0
      ],
      "type": "VEC2"
    },
    {
      "bufferView": 0,
      "byteOffset": 894528,
      "componentType": 5125,
      "count": 36,
      "type": "SCALAR"
    },
    {
      "bufferView": 2,
      "byteOffset": 2967864,
      "componentType": 5126,
      "count": 14661,
      "max": [
        10.25,
        0.25,
        10.25
      ],
      "min": [
        -10.25,
        -0.25,
        -10.25
      ],
      "type": "VEC3"
    },
    {
      "bufferView": 2,
      "byteOffset": 3143796,
      "componentType": 5126,
      "count": 14661,
      "max": [
        1.0,
        1.0,
        1.0
      ],
      "min": [
        -1.0,
        -1.0,
        -1.0
      ],
      "type": "VEC3"
    },
    {
      "bufferView": 1,
      "byteOffset": 989288,
      "componentType": 5126,
      "count": 14661,
      "max": [
        1.0,
        1.0
      ],
      "min": [
        -1.7763568394002505e-15,
        -1.7763568394002505e-15
      ],
      "type": "VEC2"
    },
    {
      "bufferView": 0,
      "byteOffset": 894672,
      "componentType": 5125,
      "count": 86400,
      "type": "SCALAR"
    },
    {
      "bufferView": 3,
      "componentType": 5126,
      "count": 1,
      "max": [
        0.0416666679084301
      ],
      "min": [
        0.0416666679084301
      ],
      "type": "SCALAR"
    },
    {
      "bufferView": 4,
      "componentType": 5126,
      "count": 1,
      "max": [
        -0.1352584809064865,
        0.7241848707199097,
        0.24688301980495453,
        0.6295318007469177
      ],
      "min": [
        -0.1352584809064865,
        0.7241848707199097,
        0.24688301980495453,
        0.6295318007469177
      ],
      "type": "VEC4"
    },
    {
      "bufferView": 3,
      "byteOffset": 4,
      "componentType": 5126,
      "count": 1,
      "max": [
        0.0416666679084301
      ],
      "min": [
        0.0416666679084301
      ],
      "type": "SCALAR"
    },
    {
      "bufferView": 4,
      "byteOffset": 16,
      "componentType": 5126,
      "count": 1,
      "max": [
        -0.1352584809064865,
        0.7241848707199097,
        0.24688301980495453,
        0.6295318007469177
      ],
      "min": [
        -0.1352584809064865,
        0.7241848707199097,
        0.24688301980495453,
        0.6295318007469177
      ],
      "type": "VEC4"
    }
  ],
  "animations": [
    {
      "channels": [
        {
          "sampler": 0,
          "target": {
            "node": 5,
            "path": "rotation"
          }
        },
        {
          "sampler": 1,
          "target": {
            "node": 7,
            "path": "rotation"
          }
        }
      ],
      "name": "Animation",
      "samplers": [
        {
          "input": 20,
          "interpolation": "LINEAR",
          "output": 21
        },
        {
          "input": 22,
          "interpolation": "LINEAR",
          "output": 23
        }
      ]
    }
  ],
  "asset": {
    "extras": {
      "author": "fabianfranco436 (https://sketchfab.com/fabianfranco436)",
      "license": "CC-BY-4.0 (http://creativecommons.org/licenses/by/4.0/)",
      "source": "https://sketchfab.com/3d-models/helio-1730a5d18a234a9bb90ba2e976e8b983",
      "title": "Helio"
    },
    "generator": "Sketchfab-12.68.0",
    "version": "2.0"
  },
  "bufferViews": [
    {
      "buffer": 0,
      "byteLength": 1240272,
      "name": "floatBufferViews",
      "target": 34963
    },
    {
      "buffer": 0,
      "byteLength": 1106576,
      "byteOffset": 1240272,
      "byteStride": 8,
      "name": "floatBufferViews",
      "target": 34962
    },
    {
      "buffer": 0,
      "byteLength": 3319728,
      "byteOffset": 2346848,
      "byteStride": 12,
      "name": "floatBufferViews",
      "target": 34962
    },
    {
      "buffer": 0,
      "byteLength": 8,
      "byteOffset": 5666576,
      "name": "floatBufferViews"
    },
    {
      "buffer": 0,
      "byteLength": 32,
      "byteOffset": 5666584,
      "byteStride": 16,
      "name": "floatBufferViews"
    }
  ],
  "buffers": [
    {
      "byteLength": 5666616,
      "uri": "scene.bin"
    }
  ],
  "materials": [
    {
      "doubleSided": true,
      "name": "material_0",
      "pbrMetallicRoughness": {
        "metallicFactor": 0.0,
        "roughnessFactor": 0.6
      }
    },
    {
      "doubleSided": true,
      "name": "Material.001",
      "pbrMetallicRoughness": {
        "baseColorFactor": [
          1.0,
          0.0,
          0.0,
          1.0
        ],
        "metallicFactor": 0.8392408536305636,
        "roughnessFactor": 0.17289786767653403
      }
    },
    {
      "doubleSided": true,
      "name": "Material.006",
      "pbrMetallicRoughness": {
        "baseColorFactor": [
          0.0,
          0.008830887753868373,
          1.0,
          1.0
        ],
        "metallicFactor": 0.7664085257879785,
        "roughnessFactor": 0.22145275290492406
      }
    }
  ],
  "meshes": [
    {
      "name": "Object_0",
      "primitives": [
        {
          "attributes": {
            "NORMAL": 1,
            "POSITION": 0,
            "TEXCOORD_0": 2
          },
          "indices": 3,
          "material": 1,
          "mode": 4
        }
      ]
    },
    {
      "name": "Object_1",
      "primitives": [
        {
          "attributes": {
            "NORMAL": 5,
            "POSITION": 4,
            "TEXCOORD_0": 6
          },
          "indices": 7,
          "material": 2,
          "mode": 4
        }
      ]
    },
    {
      "name": "Object_2",
      "primitives": [
        {
          "attributes": {
            "NORMAL": 9,
            "POSITION": 8,
            "TEXCOORD_0": 10
          },
          "indices": 11,
          "material": 2,
          "mode": 4
        }
      ]
    },
    {
      "name": "Object_3",
      "primitives": [
        {
          "attributes": {
            "NORMAL": 13,
            "POSITION": 12,
            "TEXCOORD_0": 14
          },
          "indices": 15,
          "material": 0,
          "mode": 4
        }
      ]
    },
    {
      "name": "Object_4",
      "primitives": [
        {
          "attributes": {
            "NORMAL": 17,
            "POSITION": 16,
            "TEXCOORD_0": 18
          },
          "indices": 19,
          "material": 0,
          "mode": 4
        }
      ]
    }
  ],
  "nodes": [
    {
      "children": [
        1
      ],
      "matrix": [
        1.0,
        0.0,
        0.0,
        0.0,
        0.0,
        2.220446049250313e-16,
        -1.0,
        0.0,
        0.0,
        1.0,
        2.220446049250313e-16,
        0.0,
        0.0,
        0.0,
        0.0,
        1.0
      ],
      "name": "Sketchfab_model"
    },
    {
      "children": [
        2
      ],
      "name": "root"
    },
    {
      "children": [
        3,
        5,
        7,
        9
      ],
      "matrix": [
        1.0,
        0.0,
        0.0,
        0.0,
        0.0,
        2.220446049250313e-16,
        1.0,
        0.0,
        0.0,
        -1.0,
        2.220446049250313e-16,
        0.0,
        0.0,
        0.0,
        0.0,
        1.0
      ],
      "name": "GLTF_SceneRootNode"
    },
    {
      "children": [
        4
      ],
      "matrix": [
        3.671116038309254,
        0.0,
        -0.03844524022050898,
        0.0,
        0.0,
        3.6713173389434814,
        0.0,
        0.0,
        0.03844524022050898,
        0.0,
        3.671116038309254,
        0.0,
        0.0,
        0.0,
        0.0,
        1.0
      ],
      "name": "Nucleo_1"
    },
    {
      "mesh": 0,
      "name": "Object_4"
    },
    {
      "children": [
        6
      ],
      "name": "Helio_5",
      "translation": [
        -1.7078965902328491,
        1.1493711471557617,
        -9.785806655883789
      ]
    },
    {
      "mesh": 1,
      "name": "Object_6"
    },
    {
      "children": [
        8
      ],
      "name": "Hidrogeno_6",
      "translation": [
        1.7078965902328491,
        -1.1493711471557617,
        9.785806655883789
      ]
    },
    {
      "mesh": 2,
      "name": "Object_8"
    },
    {
      "children": [
        10,
        11
      ],
      "matrix": [
        -8.539485382295328e-06,
        5.74685656119328e-06,
        -4.89290374191033e-05,
        0.0,
        -2.5337281550646975e-05,
        4.207539253724404e-05,
        9.363940417871625e-06,
        0.0,
        4.2250434633482596e-05,
        2.639384125494573e-05,
        -4.273849644046455e-06,
        0.0,
        0.0,
        0.0,
        0.0,
        1.0
      ],
      "name": "Nivel S_9"
    },
    {
      "mesh": 3,
      "name": "Object_10"
    },
    {
      "children": [
        12
      ],
      "matrix": [
        20000.001953125,
        0.0,
        0.0,
        0.0,
        0.0,
        20000.0,
        0.0,
        0.0,
        0.0,
        0.0,
        20000.0,
        0.0,
        0.0,
        0.0,
        0.0,
        1.0
      ],
      "name": "Torus_8"
    },
    {
      "mesh": 4,
      "name": "Object_12"
    }
  ],
  "scene": 0,
  "scenes": [
    {
      "name": "Sketchfab_Scene",
      "nodes": [
        0
      ]
    }
  ]
}
